/* XPM */
static char *result[] = {
/* columns rows colors chars-per-pixel */
"32 32 100 2 ",
"   c #A29067",
".  c #A39167",
"X  c #A49268",
"o  c #A49369",
"O  c #A6956A",
"+  c #A6966A",
"@  c #A7966A",
"#  c #A7966B",
"$  c #A7976B",
"%  c #A8976B",
"&  c #A9986C",
"*  c #AC9C6F",
"=  c #AD9D72",
"-  c #AE9E72",
";  c #AE9F73",
":  c #AE9F76",
">  c #B1A276",
",  c #B4A476",
"<  c #B5A576",
"1  c #B6A676",
"2  c #B8A875",
"3  c #B9A976",
"4  c #BAAA76",
"5  c #BBAB76",
"6  c #BBAB77",
"7  c #BCAC77",
"8  c #BDAD77",
"9  c #BEAE77",
"0  c #BEAE78",
"q  c #BFAF78",
"w  c #BFAE79",
"e  c #C0B078",
"r  c #C1B178",
"t  c #C1B179",
"y  c #C2B178",
"u  c #C2B179",
"i  c #C2B279",
"p  c #C3B279",
"a  c #C3B379",
"s  c #C4B379",
"d  c #C5B479",
"f  c #C5B47A",
"g  c #C5B57A",
"h  c #C6B57A",
"j  c #C6B67A",
"k  c #C7B67A",
"l  c #C7B77A",
"z  c #C6B37C",
"x  c #C3B47D",
"c  c #C4B57D",
"v  c #C8B77A",
"b  c #C9B87B",
"n  c #CAB97C",
"m  c #CBB97C",
"M  c #CBB97D",
"N  c #CBBA7D",
"B  c #CCBA7D",
"V  c #CDBA7E",
"C  c #CDBB7E",
"Z  c #CEBB7E",
"A  c #CEBB7F",
"S  c #CFBC7F",
"D  c #C9BB82",
"F  c #CCB980",
"G  c #CFBC80",
"H  c #CFBD80",
"J  c #CEBF81",
"K  c #D0BC80",
"L  c #D0BD80",
"P  c #D1BD81",
"I  c #D1BE81",
"U  c #D2BE81",
"Y  c #D0BC82",
"T  c #D2BE82",
"R  c #D3BF82",
"E  c #D3BE83",
"W  c #D3BF83",
"Q  c #D4BF83",
"!  c #CFC083",
"~  c #D0C387",
"^  c #D4C084",
"/  c #D5C084",
"(  c #D6C084",
")  c #D6C184",
"_  c #D6C185",
"`  c #D7C185",
"'  c #D7C387",
"]  c #D3C486",
"[  c #D5C487",
"{  c #D7C487",
"}  c #D3C588",
"|  c #D5C588",
" . c #D4C689",
".. c #D4C789",
"X. c #D7C689",
"o. c #D7C78A",
"O. c #D6C88A",
"+. c #D7C88B",
"@. c #D7C98B",
"#. c #D7CB8D",
/* pixels */
"` ` v v ] @.O. .} ~ ~  . .[ ` ` ` {  . . . . .@.@.@.@.@.@.` < 2 ",
"` ` / v v ` ` v v 2 2 v v v ` ` ` ` Z B v v v A ` ` ` ` ` ` > 2 ",
"` ` ` R v C ` b v i 2 q v v v ` ` ` n v v v v v T ` Y 3 3 7 > 2 ",
"` ` ` ` A v / ` v v q 2 d v v v P ( v v v v v v v ` ` ` ` w > 2 ",
"v ` ` ` ` ` v Q / v v k 2 8 v v v v v v v b Z K U Q ` ` ` ` > 2 ",
"v v Q ` ` ` ` C C _ v v v p 2 p v v v v v v v v v v I ` ` ` > 2 ",
"* % % % % % % % % % % +         % % % O   % o       @ %   % - 1 ",
": : : : : : : : : : : : : : : : : : : : : : : : : : : : : : : : ",
"B v J  . .c 2 2 x  . . . . ., 2 !  . . . . .v v v v v v v v b m ",
"/ ` ` T v v v s 2 2 2 q v v > 2 v v v B P K K K S A L ` ` ` ` / ",
"v v v / ` M v v v f r 9 2 2 > 2 2 3 q v v v b ( ` ` ` P v v v v ",
"q p v v I ` H v v v v e 2 2 > 2 6 v v v U ` ` ` ` N v v v v v s ",
"2 2 2 v v _ ` G v v v v v 7 > 2 v B ` ` ` ` ` B v v q 2 2 2 2 2 ",
"2 2 2 q v b ` ` n v v v v v > 2 ` ` ` ` ` L v v v v y 2 2 2 2 2 ",
"      % % % % % % % % % % % ; 1 &       % % % % % % % % # . O   ",
": : : : : : : : : : : : : : : : : : : : : : : : : : : : : : : : ",
"o.@.@.@.' ` b v v v v n | @.@.@... . . . . . . . . .O.@.@.` < 2 ",
"` ` ` ` G v v v V ) ` ` P b v v v v k j v v v v v v v v v T > 2 ",
"` ` b v b P ` ` ` / V n v p 4 2 2 2 2 3 9 4 2 4 j h 0 5 4 4 > 2 ",
"v S ` ` ` ` Q b v v v 5 2 2 2 3 7 4 v v v v v 2 2 2 h v v p > 2 ",
"` X.+.` P v v v v 5 2 2 2 2 t 4 9 v v v v v v j g 2 2 7 v W > 2 ",
"#.` S v v v v a 2 2 2 2 2 h 7 7 v v v v v v v v 3 2 2 2 F ` > 2 ",
"&       o % % % % % % %           % % % % % % % % % %       = 1 ",
": : : : : : : : : : : : : : : : : : : : : : : : : : : : : : : : ",
" . .2 v @.@.@.+. . . . . . ., 2 D ~ ~ ~ ~ 3 3 ( ` ` ` ^  . . . .",
"v j 2 v ` ` ` ` C v v v v v > 2 2 2 2 2 4 E ` ` ` / v v v v v v ",
"v v 2 v n ` ` K v v v p u e > 2 2 2 z ` ` ` ` ` / ` b v v v v v ",
"v v 2 7 v C ` _ v 2 2 2 2 2 > 2 ` ` ` ` ` ` P v v v v l i r g v ",
"k v q 2 t v b ` / v a 3 2 2 > 2 ` ` ` P b v v v j 4 2 2 2 2 2 2 ",
"2 v v 2 2 0 v v S ` A v v v > 2 ` ` ` ` m v j 3 2 2 2 2 2 2 2 2 ",
"    . % % % $     X % % % % - 1 * % % % %   % %   $             ",
": : : : : : : : : : : : : : : : : : : : : : : : : : : : : : : : "
};
