/* XPM */
static char *result[] = {
/* columns rows colors chars-per-pixel */
"32 32 116 2 ",
"   c #2B051E",
".  c #2D051D",
"X  c #2F051D",
"o  c #370517",
"O  c #3E0512",
"+  c #3F0512",
"@  c #3E0513",
"#  c #3A0515",
"$  c #3B0515",
"%  c #380516",
"&  c #390516",
"*  c #380517",
"=  c #3A0516",
"-  c #3B0516",
";  c #3C0514",
":  c #3D0514",
">  c #3C0516",
",  c #330519",
"<  c #30051A",
"1  c #31051A",
"2  c #30051B",
"3  c #32051A",
"4  c #33051A",
"5  c #350518",
"6  c #340519",
"7  c #350519",
"8  c #360518",
"9  c #370518",
"0  c #360519",
"q  c #16052B",
"w  c #12052D",
"e  c #13052D",
"r  c #10052F",
"t  c #16052C",
"y  c #16052F",
"u  c #1B0528",
"i  c #1B0529",
"p  c #19052A",
"a  c #19052D",
"s  c #18052E",
"d  c #18052F",
"f  c #0B0533",
"g  c #0D0530",
"h  c #0D0531",
"j  c #0F0530",
"k  c #0C0532",
"l  c #0C0533",
"z  c #0B0534",
"x  c #0A0535",
"c  c #090537",
"v  c #0A0536",
"b  c #0B0537",
"n  c #0F0534",
"m  c #0D0536",
"M  c #0C0537",
"N  c #070539",
"B  c #05053B",
"V  c #07053A",
"C  c #06053B",
"Z  c #090539",
"A  c #0A0538",
"S  c #100533",
"D  c #250523",
"F  c #260523",
"G  c #230524",
"H  c #230525",
"J  c #250524",
"K  c #280520",
"L  c #280521",
"P  c #2C0521",
"I  c #200528",
"U  c #42050F",
"Y  c #43050F",
"T  c #45050E",
"R  c #44050F",
"E  c #45050F",
"W  c #46050E",
"Q  c #47050E",
"!  c #46050F",
"~  c #47050F",
"^  c #4C050B",
"/  c #4D050B",
"(  c #4E050A",
")  c #4F050A",
"_  c #4E050B",
"`  c #48050D",
"'  c #49050D",
"]  c #4A050C",
"[  c #4B050C",
"{  c #4A050D",
"}  c #4B050D",
"|  c #48050E",
" . c #4A050E",
".. c #4C050C",
"X. c #4D050C",
"o. c #570507",
"O. c #5A0507",
"+. c #510509",
"@. c #520508",
"#. c #530508",
"$. c #520509",
"%. c #50050A",
"&. c #55050C",
"*. c #59050B",
"=. c #400511",
"-. c #410511",
";. c #420510",
":. c #400512",
">. c #430513",
",. c #440511",
"<. c #490511",
"1. c #670503",
"2. c #620504",
"3. c #680503",
"4. c #6E0500",
"5. c #6E0501",
/* pixels */
"2.4.4.4.4.Q U 5.4.4.4.4.4.4.4.4.4.4.4.4.4.4.4.4.@.@.;.< < g v g ",
"@.@.@.@.@.$.< = @.@.@.@.@.@.@.+.U U @.@.@.@.@.@.@.@.< $ u g C B ",
"o.@.@.@.@.@.< < @.@.@.@.@.@.@.@.@.Y @.@.@.@.@.@.@.@.` U u g B B ",
"4.@.@.@.@.@.* < _ @.@.@.@.@.@.@.@.@.! - @.@.@.@.@._ U U u g N g ",
"4.@.@.@.@.@.@.1 < ,.U U U @.} & < < < < , @.@.@.* :.U U o U N c ",
"4.U U ] @.@.@.@.8 < 5 o < < < < = ..@.} < < ~ < 6 U U U U U N B ",
"4.U U U U R @.@.{ 5 < < , ; @.@.@.@.@.) ;.< < < U U U U U U B B ",
"4.< ;.U U @.@.$.0 < 3 U U U U $.@.+.Y U Y @.3 < ; U U U U U B B ",
"4.< < * ^ %.R : B 2 U U U U U U R U U U U U U o < 8 ; < O U B B ",
"4.;.< < < ; 2 B A < , U U U ;.U U U U U U U ;.F n B Z < 8 U B B ",
"1.U -.< < < B B 6 < < < U U B B 9 U U U < I B B P + B B t g B B ",
"@.U U @ < < B B U =.< < 7 m B B B d U 6 M B B = U ; < B F u B B ",
"@.5 5 5 1 < B B 5 5 5 < D f l 5 B B B B B B L 5 5 G q B s < B B ",
"< < < < < < B B < < < < r g i < < B B B C g j < < < g l B a V g ",
"x N N B B B C N N N N B B B B B V N V B B N N N C B B B B N c g ",
"g g z B B B N g g g g z B B B B B g l B B g g g z B B B B g g g ",
"4.4.4.4.@.@.X.< &.*.< ;.U < B B U 6 < 4.4.4.4.4.4.4. .U @.@.4.4.",
"@.@.@./ U U U U @., < < < < B B % < > 4.4.#.@.@.@.@.Q U @.@.@.@.",
"@.@.@.U U U U U @.) < < < < B B < >.4.3.@.@.@.@.@.@.Y U @.@.@.$.",
"Y $./ U U U U U O @.: < < 6 N g 4.4.O.@.@.@.@.@.@.@.U Y +.W U U ",
"U U U U U + :.%.; < R U =.U N g 4.#.@.@.@.@.@.@./ U U ' @.@.@.@.",
"@.Y U L g ;.U Y +.< < ;.$ < N g 4.@.@.@.@.+.@.@.U U U ) @.@.@.@.",
"@.U g g U U U U ( +.< < 4 J N g 4.@.@.@.p U W @.W U U $.@.@.@.@.",
"^ U g g U U U U U @.$.< S B B C 4.@.X g & E U T ..U U ] @.@.@.@.",
"U U g g U U U U U ] @.@.S B B B <.g g w U / ' U U U U Y @.@.@.@.",
"U 8 g g U U U U U U @.@.& < B B < g 4 U U [ @...U U U U $.+.' U ",
"& < b h 3 U U U U U U ( & < B B | U U U < 7 @.$.8 e . U U U U U ",
"< < S B < < =.U U U U U 5 < B B @.U U & < < @.U U # g g =.U U ; ",
"< < y B k < < 6 5 5 5 5 3 < B B @.5 5 < < < 5 5 5 5 1 K K 5 5 < ",
"< < H B C g   < < < < < < < B B < < < < < < < < < < < < < < < < ",
"N N N N N N N N N N N N B B B B B B B V N N N N N N N N N N N N ",
"g g g g g g g g g g g g c B B B B B B g g g g g g g g g g g g g "
};
