/* XPM */
static char *result[] = {
/* columns rows colors chars-per-pixel */
"32 32 76 1 ",
"  c #38050F",
". c #39050F",
"X c #3A050F",
"o c #3B050F",
"O c #3D050E",
"+ c #3F050E",
"@ c #2C0517",
"# c #2F0516",
"$ c #2E0517",
"% c #2F0517",
"& c #26051A",
"* c #27051A",
"= c #290519",
"- c #2B0518",
"; c #2A0519",
": c #2B0519",
"> c #28051A",
", c #2C0518",
"< c #2C0519",
"1 c #2E0518",
"2 c #370510",
"3 c #360511",
"4 c #370511",
"5 c #340512",
"6 c #350512",
"7 c #340513",
"8 c #310515",
"9 c #320514",
"0 c #330514",
"q c #310516",
"w c #380510",
"e c #1A0526",
"r c #1D0524",
"t c #170528",
"y c #14052B",
"u c #190528",
"i c #0D0530",
"p c #0E0530",
"a c #0F0530",
"s c #0C0533",
"d c #0B0534",
"f c #0A0535",
"g c #090537",
"h c #0A0536",
"j c #070539",
"k c #05053B",
"l c #07053A",
"z c #06053B",
"x c #220520",
"c c #41050D",
"v c #43050D",
"b c #45050C",
"n c #45050D",
"m c #46050C",
"M c #47050C",
"N c #48050B",
"B c #49050B",
"V c #4A050B",
"C c #4B050B",
"Z c #4F0509",
"A c #4C050A",
"S c #4D050A",
"D c #4E050A",
"F c #4F050A",
"G c #49050C",
"H c #570507",
"J c #500509",
"K c #510509",
"L c #520508",
"P c #530508",
"I c #520509",
"U c #550508",
"Y c #670503",
"T c #620504",
"R c #690503",
"E c #6E0500",
/* pixels */
"TEEEEEEEEEEEEEEEEEEEEEEELLLLL hi",
"LLLLLLLLLLLLLLLJ  LLLLLLLLL   zk",
"HLLLLLLLLLLLLLLLLXLLLLLLLLc 9&kk",
"ELLLLLLLLLLLLLLLLLLLLLLLLD  -&ji",
"ELLLLLLLLK   LLLLLLLLLLLM   6 jg",
"E  bLLLLL    LLLLLLLLLLF      jk",
"E    oLLn    XLLLLLS LL       kk",
"E&w  LLI       ILJ. .Lo       kk",
"E&&$NFo2=8      o         9&5 kk",
"Ew&&&9&&&&=               &&1 kk",
"Y 4&&&&&-&&&        &&    &&yikk",
"L  7&&&; 3&&:      ;&&   9&&&tkk",
"L---*&&----&&------&yyx--ryye&kk",
"&&&&&&&&&&&&&&&&&&&&aip&&&iiiuli",
"fjjkkkzjjjjkkkkkljlkkjjjzkkkkjgi",
"iidkkkjiiiidkkkkkiskkiiidkkkkiii",
"EEEELLLREEPLL&kkTEEEEEEEEEEEEEEE",
"LLLC bLLL=&&&&kkLLLLLLLLLLLLLLLL",
"LLL   LLLD&&&&kkPLLLLLLLLLLnLLLL",
"LLC   OLLL0&&;jiELLLLLLLLL.SLLLL",
"LL     KLLo 3 jiELLLLLLLV  LLLLL",
"LV     .LLM   jiELLLLLLL   LLLLL",
"L       ALLI%&jiELLK.ZLL+  ILLLL",
"B        LLLq&kzEL+  SLLG  mLLLL",
"  @=     bLLq&kkU    VLLI  .LLLL",
" ,&&      LLq&kkL    MLLD   IJv ",
"#&&&>      Aq&kkL   &<LK        ",
"&&&&&&3     -&kkL  #&&L        9",
"&&&&&&&;---->&kkL--&&&---------&",
"&&&&&&&&&&&&&&kk&&&&&&&&&&&&&&&&",
"jjjjjjjjjjjjkkkkkkkljjjjjjjjjjjj",
"iiiiiiiiiiiigkkkkkkiiiiiiiiiiiii"
};
