/* XPM */
static char *result[] = {
/* columns rows colors chars-per-pixel */
"32 32 85 1 ",
"  c #8D4A29",
". c #8D4A2A",
"X c #8E4B2A",
"o c #8F4B2A",
"O c #904C2B",
"+ c #914D2B",
"@ c #924D2B",
"# c #934D2B",
"$ c #97502D",
"% c #99502B",
"& c #98512D",
"* c #99512D",
"= c #9B522D",
"- c #9D542E",
"; c #9E552F",
": c #9F552F",
"> c #A05630",
", c #A15731",
"< c #A25731",
"1 c #A25831",
"2 c #A35831",
"3 c #A45831",
"4 c #A55931",
"5 c #A65931",
"6 c #A65A31",
"7 c #A75A31",
"8 c #A45932",
"9 c #A55932",
"0 c #A65A32",
"q c #A75A32",
"w c #A85A32",
"e c #A85B32",
"r c #A95B32",
"t c #AA5B32",
"y c #AA5C32",
"u c #AB5C32",
"i c #AB5D32",
"p c #AC5C32",
"a c #AC5D32",
"s c #AD5D32",
"d c #AE5E33",
"f c #AF5E33",
"g c #AC5C34",
"h c #AD5E35",
"j c #AC5E36",
"k c #B05F33",
"l c #B05F34",
"z c #B15F34",
"x c #B15F35",
"c c #B26034",
"v c #B26035",
"b c #B36035",
"n c #B46035",
"m c #B46135",
"M c #B56135",
"N c #B56136",
"B c #B66136",
"V c #B56236",
"C c #B66236",
"Z c #B76236",
"A c #B76237",
"S c #B86236",
"D c #B86237",
"F c #B86337",
"G c #B96337",
"H c #BA6337",
"J c #B26339",
"K c #B56338",
"L c #B76439",
"P c #BB663A",
"I c #BB673B",
"U c #BC6539",
"Y c #BC6639",
"T c #BC683B",
"R c #BE683B",
"E c #BA683C",
"W c #BC693C",
"Q c #BD693C",
"! c #BF693C",
"~ c #BE6A3D",
"^ c #BF6A3D",
"/ c #BF6B3D",
"( c #C06A3D",
") c #C06B3D",
"_ c #C26D3F",
/* pixels */
"HHssI)^QWEEQQPHHHYQQQQQ))))))H;>",
"HHDssHHss>>sssHHHHclssscHHHHHH=>",
"HHHCscHdsr>0sssHHHfsssssCHN,,3=>",
"HHHHcsGHss0>usssMGsssssssHHHH0=>",
"sHHHHHsZGssa>9sssssssdcnBZHHHH=>",
"ssDHHHHvvGsssr>rssssssssssNHHH=>",
"$@@@@@@@@@@+    @@@O @o   +@ @&:",
"%%%%%%%%%%%%%%%%%%%%%%%%%%%%%%%%",
"lsKQQh>>jQQQQQ->LQQQQQssssssssdl",
"FHHCsssy>>>5ss=>ssszMnnnbcmHHHHG",
"sssGHlsssuw4>>=>>,6sssdGHHHMssss",
"6rssVHmssssq>>=>2sssBHHHHlsssssy",
">>>ssHHbsssss2=>szHHHHHlss6>>>>>",
">>>qsdHHfsssss=>HHHHHnsssse>>>>>",
"   @@@@@@@@@@@*:#   @@@@@@@@+.O ",
"%%%%%%%%%%%%%%%%%%%%%%%%%%%%%%%%",
"!)))UHdssssfT)))~QQQQQQQQQ/))H;>",
"HHHHnssszGHHMdssssaasssssssssC=>",
"HHdsdMHHHFzfsr<>>>>,4<><ap52<<=>",
"sbHHHHSdsss2>>>,8<sssss>>>ussr=>",
"HR(HMssss1>>>>w<9ssssssai>>2sZ=>",
"_Hbssssr>>>>>p38ssssssss,>>>xH=>",
"#   o@@@@@@@     @@@@@@@@@@   $:",
"%%%%%%%%%%%%%%%%%%%%%%%%%%%%%%%%",
"QQ>s))))QQQQQQ->JEEEE,,GHHHGQQQQ",
"sa>sHHHHvsssss=>>>>><AHHHFssssss",
"ss>sfHHnsssre7=>>>gHHHHHGHdsssss",
"ss>3scHHs>>>>>=>HHHHHHNsssssrwus",
"as0>esdHGst,>>=>HHHMdsssa<>>>>>>",
">ss>>9ssbHvsss=>HHHHksa,>>>>>>>>",
"   @@@+  X@@@@&:$@@@@ @@ +      ",
"%%%%%%%%%%%%%%%%%%%%%%%%%%%%%%%%"
};
