/* XPM */
static char *result[] = {
/* columns rows colors chars-per-pixel */
"32 32 61 1 ",
"  c #D28E89",
". c #D38F89",
"X c #D38F8A",
"o c #D5928D",
"O c #D6948E",
"+ c #D99992",
"@ c #D99994",
"# c #DA9A94",
"$ c #DB9B95",
"% c #DB9C96",
"& c #DC9D97",
"* c #DC9E97",
"= c #DD9E98",
"- c #DD9F98",
"; c #DEA099",
": c #DEA09A",
"> c #DEA39C",
", c #E1A6A0",
"< c #E2A7A1",
"1 c #E1A8A1",
"2 c #E2A9A2",
"3 c #E3ABA4",
"4 c #E4AEA8",
"5 c #E5AFA9",
"6 c #E5B1AA",
"7 c #E6B3AD",
"8 c #E7B4AE",
"9 c #E7B5AF",
"0 c #E7B6B0",
"q c #E7B7B1",
"w c #E7B8B2",
"e c #E7B9B3",
"r c #E7BAB4",
"t c #E7BBB5",
"y c #E7BBB6",
"u c #E7BCB6",
"i c #E7BDB6",
"p c #E7BDB7",
"a c #E7BEB7",
"s c #E7BEB8",
"d c #E7BFB8",
"f c #E7BFB9",
"g c #E7C0B9",
"h c #E7C0BA",
"j c #E7C1BA",
"k c #E7C0BB",
"l c #E7C1BB",
"z c #E7C2BB",
"x c #E7C1BC",
"c c #E7C4BD",
"v c #E7C4BE",
"b c #E7C4BF",
"n c #E7C5BF",
"m c #E7C5C0",
"M c #E7C6C0",
"N c #E7C6C1",
"B c #E7C7C1",
"V c #E7C7C2",
"C c #E7C8C2",
"Z c #E7C8C3",
"A c #E7CAC5",
/* pixels */
"zzrrbZCNNnnNNvzzzvNNNNNZZZZZZz57",
"zzjrrzzrr77rrrzzzzpurrrpzzzzzz37",
"zzzhrpztrw7qrrrzzztrrrrrfzd88937",
"zzzzprjzrrq7errrdlrrrrrrrzzzzq37",
"rzzzzzrjjrrr70rrrrrrrtpsfhzzzz37",
"rrjzzzzppzrrrw7wrrrrrrrrrrfzzz37",
",::::::::::$    :::+ :O   %: :<6",
"11111111111111111111111111111111",
"urkNNy77tNNNNN47xNNNNNrrrrrrrrtu",
"jzzgrrre7770rr37rrrudsssapdzzzzl",
"rrrlzurrreq0773778qrrrtlzzzfrrrr",
"qwrrfzsrrrrq77379rrrgzzzzurrrrre",
"777rrzzsrrrrr937rizzzzzurrq77777",
"777qrtzztrrrrr37zzzzzsrrrrw77777",
"   -::::::::::26@   ::::::::&X# ",
"11111111111111111111111111111111",
"BZZZcztrrrrtmZZZVNNNNNNNNNCZZz57",
"zzzzsrrrizzzdtrrrrrrrrrrrrrrrg37",
"zztrtdzzzlptrw8777780878re098837",
"rszzzzjtrrr9777808rrrrr777errw37",
"zMCzfrrrr97777q80rrrrrrrr779rg37",
"Azsrrrrw77777e90rrrrrrrr8777pz37",
"@   O:::::::     ::::::::::   >6",
"11111111111111111111111111111111",
"NN7rZZZZNNNNNN47hnnnn88zzzzlNNNN",
"rr7rzzzzprrrrr3777778hzzzjrrrrrr",
"rr7rtzzsrrrwwq3777rzzzzzlztrrrrr",
"rr79rpzzr7777737zzzzzzfrrrrrwqer",
"rrq7wrtzjrw87737zzzdtrrrr8777777",
"7rr770rrszarrr37zzzzurr877777777",
"  .:::=  o::::<6,:::: ;: *      ",
"11111111111111111111111111111111"
};
