/* XPM */
static char *result[] = {
/* columns rows colors chars-per-pixel */
"32 32 93 2 ",
"   c #422130",
".  c #432130",
"X  c #442131",
"o  c #442231",
"O  c #452232",
"+  c #462332",
"@  c #462333",
"#  c #4A2536",
"$  c #4B2737",
"%  c #4C2738",
"&  c #4D2838",
"*  c #4E2839",
"=  c #502A3A",
"-  c #542C3D",
";  c #552D3E",
":  c #582E40",
">  c #5C3042",
",  c #5D3143",
"<  c #5E3143",
"1  c #5E3144",
"2  c #5F3144",
"3  c #5F3145",
"4  c #603145",
"5  c #603245",
"6  c #613245",
"7  c #613246",
"8  c #623246",
"9  c #633246",
"0  c #633346",
"q  c #633247",
"w  c #633347",
"e  c #643347",
"r  c #643348",
"t  c #653348",
"y  c #663348",
"u  c #663349",
"i  c #673349",
"p  c #673449",
"a  c #67344A",
"s  c #68344A",
"d  c #69344A",
"f  c #69344B",
"g  c #6A354A",
"h  c #6A344B",
"j  c #6B354B",
"k  c #6B354C",
"l  c #6C354C",
"z  c #6D354D",
"x  c #6E364D",
"c  c #6E364E",
"v  c #6F364E",
"b  c #70364E",
"n  c #70364F",
"m  c #71374F",
"M  c #73384F",
"N  c #713750",
"B  c #723750",
"V  c #733750",
"C  c #733751",
"Z  c #743750",
"A  c #743751",
"S  c #733851",
"D  c #743851",
"F  c #753851",
"G  c #753852",
"H  c #763852",
"J  c #773852",
"K  c #763952",
"L  c #773952",
"P  c #773953",
"I  c #783953",
"U  c #793953",
"Y  c #783954",
"T  c #793954",
"R  c #7A3954",
"E  c #7B3955",
"W  c #7B3A54",
"Q  c #7B3A55",
"!  c #7C3B54",
"~  c #7C3A55",
"^  c #7C3B55",
"/  c #7D3A56",
"(  c #7E3A56",
")  c #7E3B56",
"_  c #7E3C56",
"`  c #7F3C57",
"'  c #803B57",
"]  c #803C57",
"[  c #823D58",
"{  c #823D59",
"}  c #833D59",
"|  c #843D59",
" . c #863E5A",
/* pixels */
"( ( h h ^ | [ ` _ ! ! ` ` ) ( ( ( ] ` ` ` ` ` | | | | | | ( ; > ",
"( ( E h h ( ( h h > > h h h ( ( ( ( m v h h h N ( ( ( ( ( ( = > ",
"( ( ( U h m ( k h t > w h h h ( ( ( z h h h h h P ( J , < 6 = > ",
"( ( ( ( B h Q ( h h 9 > s h h h H ~ h h h h h h h ( ( ( ( e = > ",
"h ( ( ( ( ( h R Q h h f > 6 h h h h h h h l m A J T ( ( ( ( = > ",
"h h R ( ( ( ( m m / h h h y > y h h h h h h h h h h H ( ( ( = > ",
"% @ @ @ @ @ @ @ @ @ @ +         @ @ @ O   @ o       + @   @ & : ",
"$ $ $ $ $ $ $ $ $ $ $ $ $ $ $ $ $ $ $ $ $ $ $ $ $ $ $ $ $ $ $ $ ",
"v h F ` ` j > > g ` ` ` ` ` - > L ` ` ` ` ` h h h h h h h h k x ",
"Q ( ( I h h h i > > > 8 h h = > h h h v H A A A B B D / ( ( ( Q ",
"h h h ~ ( c h h h a e 8 > > = > > , 9 h h h k ~ ( ( ( H h h h h ",
"8 y h h K ( S h h h h e > > = > 2 h h h J ( ( ( ( c h h h h h p ",
"> > > h h / ( C h h h h h 3 = > h b ( ( ( ( ( v h h 9 > > > > > ",
"> > > w h k ( ( z h h h h h = > ( ( ( ( ( A h h h h t > > > > > ",
"      @ @ @ @ @ @ @ @ @ @ @ * : #       @ @ @ @ @ @ @ @ @ . O   ",
"$ $ $ $ $ $ $ $ $ $ $ $ $ $ $ $ $ $ $ $ $ $ $ $ $ $ $ $ $ $ $ $ ",
"} | | | ' ( k h h h h z ` | | | ] ` ` ` ` ` ` ` ` ` [ | | ( ; > ",
"( ( ( ( C h h h n ~ ( ( H l h h h h f d h h h h h h h h h I = > ",
"( ( l h k G ( ( ( Q n z h y 1 > > > > , 8 < > 1 f s 8 2 1 1 = > ",
"h V ( ( ( ( R k h h h 2 > > > , 5 1 h h h h h > > > s h h y = > ",
"( { | ( H h h h h 2 > > > > r < 8 h h h h h h d s > > 4 h Y = > ",
" .( Z h h h h u > > > > > s 5 5 h h h h h h h h , > > > V ( = > ",
"#       o @ @ @ @ @ @ @           @ @ @ @ @ @ @ @ @ @       % : ",
"$ $ $ $ $ $ $ $ $ $ $ $ $ $ $ $ $ $ $ $ $ $ $ $ $ $ $ $ $ $ $ $ ",
"` ` > h | | | } ` ` ` ` ` ` - > M ! ! ! ! , < ~ ( ( ( W ` ` ` ` ",
"h d > h ( ( ( ( m h h h h h = > > > > > < T ( ( ( Q h h h h h h ",
"h h > h z ( ( A h h h u t q = > > > j ( ( ( ( ( Q ( k h h h h h ",
"h h > 5 h m ( / h > > > > > = > ( ( ( ( ( ( H h h h h h t e s h ",
"f h 0 > t h k ( Q h u , > > = > ( ( ( H l h h h f < > > > > > > ",
"> h h > > 7 h h Z ( B h h h = > ( ( ( ( x h d , > > > > > > > > ",
"    . @ @ @ @     X @ @ @ @ & : % @ @ @ @   @ @   @             ",
"$ $ $ $ $ $ $ $ $ $ $ $ $ $ $ $ $ $ $ $ $ $ $ $ $ $ $ $ $ $ $ $ "
};
