/* XPM */
static char *_b3b0b14e5e44251a7ac7653aaee73102ahvX7efxfSYdlPP[] = {
/* columns rows colors chars-per-pixel */
"32 32 100 2 ",
"   c #A29067",
".  c #A39167",
"X  c #A49268",
"o  c #A49369",
"O  c #A6956A",
"+  c #A6966A",
"@  c #A7966A",
"#  c #A7966B",
"$  c #A7976B",
"%  c #A8976B",
"&  c #A9986C",
"*  c #AC9C6F",
"=  c #AD9D72",
"-  c #AE9E72",
";  c #AE9F73",
":  c #AE9F76",
">  c #B1A276",
",  c #B4A476",
"<  c #B5A576",
"1  c #B6A676",
"2  c #B8A875",
"3  c #B9A976",
"4  c #BAAA76",
"5  c #BBAB76",
"6  c #BBAB77",
"7  c #BCAC77",
"8  c #BDAD77",
"9  c #BEAE77",
"0  c #BEAE78",
"q  c #BFAF78",
"w  c #BFAE79",
"e  c #C0B078",
"r  c #C1B178",
"t  c #C1B179",
"y  c #C2B178",
"u  c #C2B179",
"i  c #C2B279",
"p  c #C3B279",
"a  c #C3B379",
"s  c #C4B379",
"d  c #C5B479",
"f  c #C5B47A",
"g  c #C5B57A",
"h  c #C6B57A",
"j  c #C6B67A",
"k  c #C7B67A",
"l  c #C7B77A",
"z  c #C6B37C",
"x  c #C3B47D",
"c  c #C4B57D",
"v  c #C8B77A",
"b  c #C9B87B",
"n  c #CAB97C",
"m  c #CBB97C",
"M  c #CBB97D",
"N  c #CBBA7D",
"B  c #CCBA7D",
"V  c #CDBA7E",
"C  c #CDBB7E",
"Z  c #CEBB7E",
"A  c #CEBB7F",
"S  c #CFBC7F",
"D  c #C9BB82",
"F  c #CCB980",
"G  c #CFBC80",
"H  c #CFBD80",
"J  c #CEBF81",
"K  c #D0BC80",
"L  c #D0BD80",
"P  c #D1BD81",
"I  c #D1BE81",
"U  c #D2BE81",
"Y  c #D0BC82",
"T  c #D2BE82",
"R  c #D3BF82",
"E  c #D3BE83",
"W  c #D3BF83",
"Q  c #D4BF83",
"!  c #CFC083",
"~  c #D0C387",
"^  c #D4C084",
"/  c #D5C084",
"(  c #D6C084",
")  c #D6C184",
"_  c #D6C185",
"`  c #D7C185",
"'  c #D7C387",
"]  c #D3C486",
"[  c #D5C487",
"{  c #D7C487",
"}  c #D3C588",
"|  c #D5C588",
" . c #D4C689",
".. c #D4C789",
"X. c #D7C689",
"o. c #D7C78A",
"O. c #D6C88A",
"+. c #D7C88B",
"@. c #D7C98B",
"#. c #D7CB8D",
/* pixels */
"` ` v v ] @.@. .} ~ ~  . .[ ` ` ` [  . . . . .@.@.@.@.@.@.` , 2 ",
"` ` ` v v ` ` v v 2 2 v v v ` ` ` ` C C v v v C ` ` ` ` ` ` > 2 ",
"` ` ` R v C ` b v i 2 q v v v ` ` ` n v v v v v R ` R 2 2 8 > 2 ",
"` ` ` ` C v ` ` v v q 2 d v v v R ` v v v v v v v ` ` ` ` q > 2 ",
"v ` ` ` ` ` v Q ` v v d 2 8 v v v v v v v b C R R Q ` ` ` ` > 2 ",
"v v Q ` ` ` ` C C ` v v v i 2 i v v v v v v v v v v R ` ` ` > 2 ",
"* % % % % % % % % % % +         % % % +   % o       + %   % ; , ",
": : : : : : : : : : : : : : : : : : : : : : : : : : : : : : : : ",
"C v G  . .c 2 2 x  . . . . ., 2 !  . . . . .v v v v v v v v b n ",
"` ` ` R v v v s 2 2 2 q v v > 2 v v v C R R R R S C R ` ` ` ` ` ",
"v v v ` ` n v v v d i 8 2 2 > 2 2 2 q v v v b ` ` ` ` R v v v v ",
"q i v v R ` G v v v v i 2 2 > 2 2 v v v R ` ` ` ` n v v v v v s ",
"2 2 2 v v ` ` G v v v v v 8 > 2 v C ` ` ` ` ` C v v q 2 2 2 2 2 ",
"2 2 2 q v b ` ` n v v v v v > 2 ` ` ` ` ` R v v v v i 2 2 2 2 2 ",
"      % % % % % % % % % % % ; , &       % % % % % % % % +   +   ",
": : : : : : : : : : : : : : : : : : : : : : : : : : : : : : : : ",
" .@.@.@.` ` b v v v v n  .@.@.@. . . . . . . . . . .@.@.@.` , 2 ",
"` ` ` ` G v v v C ` ` ` R b v v v v d d v v v v v v v v v R > 2 ",
"` ` b v b R ` ` ` ` C n v i 2 2 2 2 2 2 8 2 2 2 d d q 2 2 2 > 2 ",
"v S ` ` ` ` Q b v v v 2 2 2 2 2 8 2 v v v v v 2 2 2 d v v i > 2 ",
"`  .@.` R v v v v 2 2 2 2 2 i 2 8 v v v v v v d d 2 2 8 v R > 2 ",
"#.` S v v v v i 2 2 2 2 2 d 8 8 v v v v v v v v 2 2 2 2 F ` > 2 ",
"&       o % % % % % % %           % % % % % % % % % %       ; , ",
": : : : : : : : : : : : : : : : : : : : : : : : : : : : : : : : ",
" . .2 v @.@.@.@. . . . . . ., 2 D ~ ~ ~ ~ 2 2 ` ` ` ` `  . . . .",
"v d 2 v ` ` ` ` C v v v v v > 2 2 2 2 2 2 R ` ` ` ` v v v v v v ",
"v v 2 v n ` ` R v v v i i i > 2 2 2 z ` ` ` ` ` ` ` b v v v v v ",
"v v 2 8 v C ` ` v 2 2 2 2 2 > 2 ` ` ` ` ` ` R v v v v d i i d v ",
"d v q 2 i v b ` ` v i 2 2 2 > 2 ` ` ` R b v v v d 2 2 2 2 2 2 2 ",
"2 v v 2 2 q v v S ` C v v v > 2 ` ` ` ` n v d 2 2 2 2 2 2 2 2 2 ",
"      % % % +     o % % % % ; , * % % % %   % %   +             ",
": : : : : : : : : : : : : : : : : : : : : : : : : : : : : : : : "
};
