/* XPM */
static char *_938bc26a86a464d9b2673eec551c40b3DaUrnqRT4QqYavX[] = {
/* columns rows colors chars-per-pixel */
"32 32 50 1 ",
"  c #565662",
". c #565663",
"X c #7E7E91",
"o c #696979",
"O c #60606E",
"+ c #686878",
"@ c #656575",
"# c #666676",
"$ c #707082",
"% c #4B4B57",
"& c #4E4E5B",
"* c #6F6F81",
"= c #676776",
"- c #6F6F80",
"; c #6E6E7F",
": c #636373",
"> c #717182",
", c #626271",
"< c #646474",
"1 c #646473",
"2 c #676778",
"3 c #707081",
"4 c #656576",
"5 c #616170",
"6 c #717183",
"7 c #676777",
"8 c #7F7F91",
"9 c #69697A",
"0 c #7C7C8F",
"q c #7A7A8C",
"w c #5F5F6E",
"e c #474752",
"r c #545461",
"t c #5B5B69",
"y c #575764",
"u c #53535F",
"i c #404049",
"p c #4D4D59",
"a c #555562",
"s c #8A8A9F",
"d c #87879B",
"f c #828295",
"g c #838395",
"h c #5E5E6C",
"j c #4F4F5B",
"k c #838396",
"l c #7E7E90",
"z c #6A6A7B",
"x c #6E6E7E",
"c c white",
/* pixels */
" .XoO++@@@@@@@@++@@@@@@@#o@$#%&.",
" .XoO*=@@@@@@@@-=@@@@@@@o;:>#%&.",
" .XoO#,<@@@@@@@#,<@@@@@@#1,>#%&.",
" .XoO@@@@@@@@@@@@@@@@@@@@@@>#%&.",
" .XoO@@@@@@@@@@@@@@@@@@@@@@>#%&.",
" .XoO@@@@@@@@@@@@@@@@@@@@@@>#%&.",
" .XoO@@@@@@@@@@@@@@@@@@@@@@>#%&.",
" .XoO@@@@@@@@@@@@@@@@@@@@@@>#%&.",
" .XoO@@@@@@@@@@@@@@@@@@@@@@>#%&.",
" .XoO@@@@@@@@@@@@@@@@@@@@@@>#%&.",
" .XoO+2@@@@@@@@22@@@@@@@#o@$#%&.",
" .XoO3=@@@@@@@@-=@@@@@@@o;:>#%&.",
" .XoO45<@@@@@@@@5<@@@@@@@:,67%&.",
" .89+>>>>>>>>>>$>>>>>>>>$>60+%&.",
" .q71######################7we&.",
" r+tyyyyyyyyyyyyyyyyyyyyyyyyuip.",
"aysdfffffffffffffffffffffffg8hj.",
" .k3=++++++++++++++++++++++o7j&.",
" .l7ywOOOOOOOOOOOOOOOOOOOOO+<%&.",
" .X+w;z@@@@@@@@;z@@@@@@@+34>#%&.",
" .XoOz5<@@@@@@@z5<@@@@@@2=5>#%&.",
" .XoO@<@@@@@@@@@<@@@@@@@@@<>#%&.",
" .XoO@@@@@@@@@@@@@@@@@@@@@@>#%&.",
" .XoO@@@@@@@@@@@@@@@@@@@@@@>#%&.",
" .XoO@@@@@@@@@@@@@@@@@@@@@@>#%&.",
" .XoO@@@@@@@@@@@@@@@@@@@@@@>#%&.",
" .XoO@@@@@@@@@@@@@@@@@@@@@@>#%&.",
" .XoO@@@@@@@@@@@@@@@@@@@@@@>#%&.",
" .XoO@@@@@@@@@@@@@@@@@@@@@@>#%&.",
" .XoO;z@@@@@@@@xz@@@@@@@2-@$#%&.",
" .XoOz5<@@@@@@@z5<@@@@@@2=5>#%&.",
" .XoO@<@@@@@@@@@<@@@@@@@@@<>#%&."
};
