/* XPM */
static char *result[] = {
/* columns rows colors chars-per-pixel */
"32 32 38 1 ",
"  c #7664FB",
". c #7F60FA",
"X c #766BFC",
"o c #7F6DFC",
"O c #7777FE",
"+ c #7E73FE",
"@ c #747FFE",
"# c #7E7EFE",
"$ c #8362FB",
"% c #8B66FC",
"& c #826EFD",
"* c #8B6AFD",
"= c #9664FA",
"- c #8273FE",
"; c #8B74FE",
": c #827DFE",
"> c #8C7DFE",
", c #6983FC",
"< c #7484FE",
"1 c #7E83FE",
"2 c #768AFE",
"3 c #7E8CFE",
"4 c #7F96FC",
"5 c #7499FC",
"6 c #7F9BFB",
"7 c #7EA3F8",
"8 c #8283FE",
"9 c #8A82FE",
"0 c #828BFE",
"q c #898CFE",
"w c #9283FD",
"e c #918BFD",
"r c #8294FD",
"t c #8B95FC",
"y c #829BFB",
"u c #8A9EFA",
"i c #82A7F5",
"p c #82A3F8",
/* pixels */
"#:::2803r4r338##1133303131138w1<",
"#8::118:::11#81::::8##1118#:1>#@",
"#8#:#1::#>:2::118#:#8##81#:83q@@",
"1##88818:8-:211#188####1#1::-;@1",
"11###::1::8::3##1#:#1111311#:>1@",
"r4646yrr6rryyr67r44y6rp6766y6u#1",
";-oooo+ooo&%... +oo%.o%...X&.+,8",
"++o&:##oooooo&#:oooooo-++++#+++-",
"::208;8154033e1@23333081:######+",
"11:::::-8813891@88##:+:+-#:##888",
"#1111::#8--:18#8113#1##11188881#",
"03811:::1:8-::@#+####::188:1#880",
"#11111::#:1#:;#@#####1881:::11:#",
"64y54466r44r4t@17p76yyr44ryry4y4",
"$..Xooooo-o+o+<1=..$ooooo&o&* %.",
"ooo.o++-+++++-oooooooooooooo&-+#",
"3131888######3833330303033418w1<",
"#8#8q1:####818888883311#####1q#@",
":818#+###:::8008##1#--803:8000@@",
"###:#808188q18##8+###::8113::;#@",
":+8808#:8q####O8O8#####-:::21>#<",
"ipip64ryr04343u46444444404062u@<",
"=.$. oooooo&$$...o+ooo+o-+o$..,8",
"o&#+ooooooooo&##&oooo&#:+o&+oooo",
"3q@1183003030e2#5444y0+O##:13330",
"#>111##:8#1##9####11++1:888#:1##",
"#:81181:18000q#:#+o+##1888:###1:",
"#::1118:#>#:#8@@#1###88:1:800331",
"11>#2#11:8-:::#@:#::::#88q1:1##1",
"66y436y776rrrq<<6646y7yy6r46r646",
"...ooo*.. ooo+<1*oo+*.X*.*....$.",
"+--+ooooooooo&o-+oo&ooooooo.o&##"
};
