/* XPM */
static char *_2df3feffab642c1e5bb54beaad0ac0cXs96NOuSOpX7EJoc[] = {
/* columns rows colors chars-per-pixel */
"32 32 62 1 ",
"  c #7664FB",
". c #7F60FA",
"X c #766BFC",
"o c #7F6DFC",
"O c #7777FE",
"+ c #7E73FE",
"@ c #747FFE",
"# c #7E7EFE",
"$ c #8362FB",
"% c #8B66FC",
"& c #826EFD",
"* c #8B6AFD",
"= c #9664FA",
"- c #8273FE",
"; c #8B74FE",
": c #827DFE",
"> c #8C7DFE",
", c #6983FC",
"< c #7484FE",
"1 c #7E83FE",
"2 c #768AFE",
"3 c #7E8CFE",
"4 c #7F96FC",
"5 c #7499FC",
"6 c #7F9AFB",
"7 c #7E9DFA",
"8 c #7D9CFC",
"9 c #7FA2F8",
"0 c #7AA4F8",
"q c #7EA5F9",
"w c #8183FE",
"e c #8582FE",
"r c #8086FE",
"t c #8486FE",
"y c #8880FE",
"u c #8C81FE",
"i c #8B86FE",
"p c #828AFE",
"a c #868AFE",
"s c #808CFE",
"d c #848EFE",
"f c #898CFE",
"g c #9283FD",
"h c #918BFD",
"j c #8590FB",
"k c #8391FE",
"l c #8491FD",
"z c #8096FC",
"x c #8494FC",
"c c #8C97FB",
"v c #8993FD",
"b c #8098FB",
"n c #8198FB",
"m c #879BFB",
"M c #819EF9",
"N c #849DFB",
"B c #8198FC",
"V c #859DFC",
"C c #899EFA",
"Z c #82A7F5",
"A c #81A0F9",
"S c #83A5F8",
/* pixels */
"#::#21p3k4433t###13333311111rg1@",
"##::11::::11#11##:::###11####>@@",
"###::1w:#>:2##11##e1###111:e3d@@",
"1##wew1:::;w21#11rw#####11#:;;@1",
"11###::1:::::21######111311##>@@",
"z47666nl8xznMj70444M74M7998n7c11",
";&ooooooooo*... ooo%.o%...X&.o<r",
"++o&:##oooooo-##oooooo-+++++++++",
"::2st;:154333h1@23333sw#########",
"11:::#:;:1133u@111#1:###:####wrr",
"#111::##:--:1e@#1131#1####wrrw##",
"s3111:::##:;::@#+#######wr:11wrp",
"##1111::####:>@@######wrw:::1ww#",
"6665446nz4444v11A9996Nz444VkB4z6",
"...Xooooooooo+<r=...oooooooo%X%.",
"ooooo---++++++&oooooooooooooo-##",
"1111trr######1pss33333333333rg1@",
"#w1wtw####wrrrwwwrp3111####1ri@@",
"we1w####1w::wppww:##-:w33wwppa@@",
"###:#wrrwwtaw###tO###:::112w:;@1",
"##rwrw##raw###OtO######:ew121>@@",
"ZSSA744mk333B4C47444444zd3sn2C12",
"=... oooooo&$.$..+oooooooo&$..,r",
"o&#+ooooooooo-::ooooo&##+o+++ooo",
"3f11111ps3333h115444BfOO##wr3333",
"#>111##wt####>@:####O+###tw#####",
"#:w111#e#wpssf@##+o+##:r1w::####",
"#::2111::y#1#:@@###11wtw#wwps331",
"1#>12111::;:::@@##:::w#waaw####1",
"67Nk38M7q7kzzf11n666N7Mxnk666666",
"...ooo*..Xoooo<r;ooo&.X&.*......",
"o-++ooooooooo-+++oooooooooooo-##"
};
