/* XPM */
static char *result[] = {
/* columns rows colors chars-per-pixel */
"32 32 85 1 ",
"  c #744F35",
". c #755035",
"X c #775236",
"o c #785337",
"O c #7B5639",
"+ c #7C5639",
"@ c #7D5739",
"# c #7D5839",
"$ c #7E583A",
"% c #7E593A",
"& c #7F593A",
"* c #805A3B",
"= c #815A3C",
"- c #8A613F",
"; c #8F6441",
": c #8F6542",
"> c #926743",
", c #976A44",
"< c #996C46",
"1 c #9C6E48",
"2 c #9C6F49",
"3 c #9D7049",
"4 c #9F714A",
"5 c #A0724B",
"6 c #A1724C",
"7 c #A1734C",
"8 c #A2734C",
"9 c #A2734D",
"0 c #A2744D",
"q c #A3744D",
"w c #A3744E",
"e c #A4744E",
"r c #A4754F",
"t c #A5754F",
"y c #A57550",
"u c #A57650",
"i c #A67650",
"p c #A67651",
"a c #A67751",
"s c #A77751",
"d c #A77752",
"f c #A87752",
"g c #A87852",
"h c #A97853",
"j c #A97953",
"k c #AA7954",
"l c #AB7A55",
"z c #AA7B55",
"x c #AA7B56",
"c c #AC7B56",
"v c #AD7C57",
"b c #AD7C58",
"n c #AE7D58",
"m c #AE7D59",
"M c #AF7E59",
"N c #AF7E5A",
"B c #B07F5A",
"V c #B07F5B",
"C c #B0805B",
"Z c #B1805B",
"A c #B1805C",
"S c #B0815C",
"D c #B2815D",
"F c #B3825D",
"G c #B3825E",
"H c #B3825F",
"J c #B4835E",
"K c #B4835F",
"L c #B58460",
"P c #B58461",
"I c #B68561",
"U c #B68562",
"Y c #B78662",
"T c #B78663",
"R c #B78763",
"E c #B88763",
"W c #B88764",
"Q c #B98864",
"! c #BA8965",
"~ c #BA8966",
"^ c #BB8A66",
"/ c #BC8B68",
"( c #BD8C69",
") c #BE8D6A",
"_ c #BF8E6B",
/* pixels */
"WWkkE)/~!RR~~QWWW~~~~~~))))))W24",
"WWIkkWWkk44kkkWWWWNnkkkBWWWWWW<4",
"WWWKkMWlka4tkkkWWWckkkkkGWH55w<4",
"WWWWBkUWkkt4gkkkDYkkkkkkkWWWWu<4",
"kWWWWWkLUkkj4wkkkkkkklNAGLWWWW<4",
"kkIWWWWMMTkkks4skkkkkkkkkkGWWW<4",
"-**********@    ***O *o   #* *:3",
",,,,,,,,,,,,,,,,,,,,,,,,,,,,,,,,",
"bkD~~x44z~~~~~14J~~~~~kkkkkkkklv",
"UWWKkkkd444rkk<4kkknDAAAVBAEWWWU",
"kkkYWvkkkgie44<445rkkklYWWWGkkkk",
"rskkFWZkkkky44<49kkkGWWWWvkkkkkf",
"444kkTWZkkkkk9<4knWWWWWbkkr44444",
"444tklWWckkkkk<4WWWWWAkkkki44444",
"   &**********>3=   ********$.+ ",
",,,,,,,,,,,,,,,,,,,,,,,,,,,,,,,,",
"/)))~Wlkkkkc!)))^~~~~~~~~~/))W24",
"WWWWAkkkmTWWDlkkkkkhkkkkkkkkkK<4",
"WWlklDWWWUmcks644445e646jhe766<4",
"kZWWWWIlkkk84445q6kkkkk444hkks<4",
"W/(WFkkkk74444i6ekkkkkkhh449kK<4",
"_WZkkkks44444h90kkkkkkkk5444CW<4",
"=   o*******     **********   ;3",
",,,,,,,,,,,,,,,,,,,,,,,,,,,,,,,,",
"~~4k)))(~~~~~~14SRRRR55TWWWU~~~~",
"kh4kWWWWMkkkkk<444447PWWWIkkkkkk",
"kk4kcWWAkkksit<444xWWWWWUWlkkkkk",
"kk40kMWTk44444<4WWWWWWFkkkkkpigk",
"kkr4pklWUks544<4WWWDlkkkj5444444",
"4kk44wkkZWBkkk<4WWWWvkh544444444",
"  .***&  X****:3-**** ** %      ",
",,,,,,,,,,,,,,,,,,,,,,,,,,,,,,,,"
};
