/* XPM */
static char *result[] = {
/* columns rows colors chars-per-pixel */
"32 32 65 1 ",
"  c #2E1D0E",
". c #2F1E0E",
"X c #301E0F",
"o c #311F0F",
"O c #321F0F",
"+ c #32200F",
"@ c #33200F",
"# c #332110",
"$ c #362310",
"% c #372311",
"& c #392411",
"* c #3A2411",
"= c #392412",
"- c #3B2612",
"; c #3D2712",
": c #3D2812",
"> c #3E2912",
", c #3F2A13",
"< c #402A13",
"1 c #402B13",
"2 c #412B13",
"3 c #412B14",
"4 c #422C14",
"5 c #432C14",
"6 c #422C15",
"7 c #432C15",
"8 c #442C15",
"9 c #442D15",
"0 c #452D15",
"q c #462D15",
"w c #462F15",
"e c #452D16",
"r c #462D16",
"t c #452E16",
"y c #462E16",
"u c #472E16",
"i c #472F16",
"p c #472E17",
"a c #482F17",
"s c #492F17",
"d c #4A2F17",
"f c #4A3217",
"g c #4C3017",
"h c #4A3018",
"j c #4B3018",
"k c #4B3118",
"l c #4C3118",
"z c #4D3118",
"x c #4D3218",
"c c #4D3319",
"v c #4E3218",
"b c #4F3218",
"n c #4F3219",
"m c #4E3518",
"M c #4E3419",
"N c #503419",
"B c #513419",
"V c #503519",
"C c #503619",
"Z c #50351A",
"A c #51351A",
"S c #51361A",
"D c #52361A",
"F c #52371A",
"G c #53381A",
/* pixels */
"bbssZFFSCmmSSVbbbBSSSSSFFFFFFb:>",
"bbvssbbss>>sssbbbbljssslbbbbbb->",
"bbbvslbhse>8sssbbbhsssssvbg,,2->",
"bbbblsbbss8>ussszbsssssssbbbb4->",
"sbbbbbsvbssa>4ssssssshllzvbbbb->",
"ssvbbbbllbsssy>yssssssssssxbbb->",
"$@@@@@@@@@@O    @@@o @X   O@ @&:",
"********************************",
"jscSSi>>wSSSSS;>MSSSSSsssssssshj",
"bbbvsssy>>>7ss->ssskzlllllzbbbbb",
"sssbbjsssp05>>->>,7ssshbbbbzssss",
"7yssvbzssss9>>->3sssxbbbbjsssssu",
">>>ssbblsssss3->skbbbbbjss7>>>>>",
">>>8shbbhsssss->bbbbblssss0>>>>>",
"   @@@@@@@@@@@=:#   @@@@@@@@+ o ",
"********************************",
"DFFFNbhsssshAFFFSSSSSSSSSSFFFb:>",
"bbbblssskbbbzhsssssasssssssssv->",
"bbhshzbbbbjhsr<>>>>,5<><aa71<<->",
"slbbbbvhsss2>>>,4<sssss>>>assy->",
"bDFbzssss1>>>>e<5ssssssaa>>3sv->",
"Gblssssy>>>>>a33ssssssss,>>>db->",
"#   X@@@@@@@     @@@@@@@@@@   %:",
"********************************",
"SS>sFFFFSSSSSS;>fmmmm,,vbbbnSSSS",
"sa>sbbbblsssss->>>>>,zbbbbssssss",
"ss>shbblsssye8->>>qbbbbbbbhsssss",
"ss>3slbbs>>>>>->bbbbbbzssssse0ps",
"ss7>tshbbsy,>>->bbbzhsssa,>>>>>>",
">ss>>6sslblsss->bbbbjsa,>>>>>>>>",
"   @@@+  .@@@@&:$@@@@ @@ +      ",
"********************************"
};
