/* XPM */
static char *result[] = {
/* columns rows colors chars-per-pixel */
"32 32 87 1 ",
"  c #220B1F",
". c #240B1E",
"X c #2D0B1B",
"o c #2E0B1B",
"O c #2F0B1B",
"+ c #280B1D",
"@ c #370B17",
"# c #3D0B13",
"$ c #3B0B15",
"% c #380B16",
"& c #390B16",
"* c #380B17",
"= c #3A0B16",
"- c #3B0B16",
"; c #3C0B14",
": c #3C0B15",
"> c #3D0B15",
", c #3E0B14",
"< c #3F0B14",
"1 c #3E0B15",
"2 c #320B19",
"3 c #330B19",
"4 c #300B1A",
"5 c #310B1A",
"6 c #300B1B",
"7 c #310B1B",
"8 c #320B1A",
"9 c #330B1A",
"0 c #340B18",
"q c #350B18",
"w c #340B19",
"e c #350B19",
"r c #360B18",
"t c #370B18",
"y c #060B24",
"u c #070B24",
"i c #0E0B23",
"p c #0F0B23",
"a c #090B24",
"s c #0A0B24",
"d c #0D0B24",
"f c #110B22",
"g c #100B23",
"h c #110B23",
"j c #130B22",
"k c #120B23",
"l c #160B21",
"z c #160B22",
"x c #1A0B21",
"c c #1C0B20",
"v c #450B0F",
"b c #460B0E",
"n c #4E0B0A",
"m c #4E0B0B",
"M c #4F0B0B",
"N c #480B0E",
"B c #490B0F",
"V c #4B0B0E",
"C c #4A0B0F",
"Z c #4B0B0F",
"A c #4E0B0C",
"S c #500B07",
"D c #520B06",
"F c #530B06",
"G c #550B05",
"H c #560B04",
"J c #570B04",
"K c #560B05",
"L c #540B07",
"P c #550B07",
"I c #5A0B02",
"U c #510B09",
"Y c #530B09",
"T c #400B13",
"R c #410B13",
"E c #420B12",
"W c #430B12",
"Q c #420B13",
"! c #440B11",
"~ c #450B11",
"^ c #470B10",
"/ c #460B11",
"( c #470B11",
") c #440B12",
"_ c #450B12",
"` c #480B10",
"' c #490B10",
/* pixels */
"VV%%nJGFDSSFFmVVVMFFFFFJJJJJJV.X",
"VV`%%VZ%%XX%%%VVVV<>%%%<VVVVVVcX",
"VVV/%<V&%wX9%%%VVV-%%%%%)V_oo5cX",
"VVVV<%'Z%%9Xr%%%WB%%%%%%%ZVVZwcX",
"%VVVVZ%('%%@X5%%%%%%%=<Q!^VVVVcX",
"%%^VVVV,,C%%%eXe%%%%%%%%%%WVVVcX",
"xjjjjjjjjjjpyyyyjjjdyjsyyygjyjx+",
"llllllllllllllllllllllllllllllll",
">%vFF;XX#FFFFF XNFFFFD%%%%%%%%&:",
"`VV~%%%qXXX2*%cX%%%>WEEETTQCVVV'",
"%%%'V:%%%rw8XXcXXo2%%%&BVVV)%%%%",
"8q%%)VR%%%%3XXcX6*%%_VVVZ:%%%%%r",
"XXX%%CVR%%%%%6cX%1ZVVVV>%*2XXXXX",
"XXX9%&VV$%%%%%cXVVVVVQ%%%%wXXXXX",
"yyykjjjjjjjjjjx+fyyyjjjjjjjjhuiy",
"llllllllllllllllllllllllllllllll",
"LJJJAZ&%%%%-UJJJFFFFFFFFFFKJJV.X",
"VZVVR%%%,BVVW=%%%%*@%%%%%%%%%~cX",
"VV=%&QZVV`,$%qOXXXXo8OXO@t8OOOcX",
"%RZVVV`&%%*6XXXo7O%%%%*XXXt%%qcX",
"VYPVW%%%%OXXXXwO8%%%%%%@tXX6%/cX",
"IVR%%%%eXXXXX@64%%%%%%%%oXXXRVcX",
"fyyysjjjjjjjyyyyyjjjjjjjjjjyyyz+",
"llllllllllllllllllllllllllllllll",
"FFX%JJJHFFFFFF XbSSSSooCVVVBFFFF",
"%@X%VVVV,%%%%%cXXXXXO(VVV`%%%%%%",
"%%X%$VVR%%*qw3cXXX-ZVVVZ'V&%%%%%",
"%%X4%<VC%XXXXXcXVVVVVVW%%%%*0wr%",
"*%8Xw%&V'%qoXXcXVVVW=%%%@oXXXXXX",
"X%%XX5%%RV<%%*cXVVVV:%@oXXXXXXXX",
"yyyjjjhyyajjjjx+xjjjjykjyhyyyyyy",
"llllllllllllllllllllllllllllllll"
};
