/* XPM */
static char *result[] = {
/* columns rows colors chars-per-pixel */
"32 32 76 1 ",
"  c #622022",
". c #622023",
"X c #632124",
"o c #642224",
"O c #652425",
"+ c #662425",
"@ c #672525",
"# c #672526",
"$ c #672626",
"% c #682628",
"& c #6C292B",
"* c #6D292C",
"= c #6E2A2C",
"- c #6F2A2D",
"; c #6E2B2D",
": c #712C30",
"> c #732E32",
", c #742F33",
"< c #743034",
"1 c #753136",
"2 c #763236",
"3 c #763336",
"4 c #763237",
"5 c #763535",
"6 c #773635",
"7 c #773735",
"8 c #763436",
"9 c #773436",
"0 c #763536",
"q c #773536",
"w c #773636",
"e c #773736",
"r c #783536",
"t c #773934",
"y c #773835",
"u c #773935",
"i c #773836",
"p c #783A34",
"a c #783B34",
"s c #793B34",
"d c #7A3936",
"f c #7C3B37",
"g c #793C34",
"h c #7A3C34",
"j c #7A3D34",
"k c #7B3D34",
"l c #7B3E34",
"z c #7C3D35",
"x c #7C3E34",
"c c #7C3F34",
"v c #7D3F34",
"b c #7D3F35",
"n c #7D3B38",
"m c #7D4034",
"M c #7E4034",
"N c #7E4134",
"B c #7E4035",
"V c #7F4135",
"C c #7F4234",
"Z c #7F4235",
"A c #7F4137",
"S c #804237",
"D c #824536",
"F c #824537",
"G c #814039",
"H c #844638",
"J c #854738",
"K c #864639",
"L c #854838",
"P c #864938",
"I c #864839",
"U c #874939",
"Y c #874A39",
"T c #884A39",
"R c #884B39",
"E c #8B4D3A",
/* pixels */
"CCttHRTIIKKIIFCCCDIIIIIRRRRRRC,1",
"CCNttCCtt11tttCCCCjgtttjCCCCCC:1",
"CCCmtjCpte1qtttCCCatttttcCb229:1",
"CCCCjtNCttq1itttcNtttttttCCCZr:1",
"tCCCCCtMNttu19tttttttpjlcmCCCC:1",
"ttNCCCCjjCttte1ettttttttttcCCC:1",
"&$$$$$$$$$$+    $$$O $o   +$ $=<",
"--------------------------------",
"stAIIf11nIIIII>1SIIIIIttttttttps",
"NCCmttt71110ut:1tttgclllkjxCCCCN",
"tttNCsttty6811:1120tttpNCCCctttt",
"07ttcClttttq11:13uttvCCCCsttttt7",
"111ttCClttttt3:1thCCCCCgtu011111",
"111qtpCCattttt:1CCCCClttttw11111",
"   #$$$$$$$$$$;<%   $$$$$$$$@.O ",
"--------------------------------",
"PRRRDCpttttaJRRRUIIIIIIIIITRRC,1",
"CCCClttthCCCcpttttuytttttttttv:1",
"CCptpxCCCNhat72111128212uy8322:1",
"tkCCCCNpttu3111292ttttu111ytt7:1",
"CLYCctttt31111w29ttttttyy113tm:1",
"ECltttte11111y39tttttttt2111zC:1",
"%   o$$$$$$$     $$$$$$$$$$   *<",
"--------------------------------",
"II1tRRRTIIIIII>1GKKKK42VCCCZIIII",
"ty1tCCCCjttttt:111112BCCCNtttttt",
"tt1taCClttu765:111dZCCCCNCpttttt",
"tt18tjCCt11111:1CCCCCCcttttu66yt",
"utq1wtpCNt7211:1CCCcptttu2111111",
"1tt119ttlCkttu:1CCCCsty211111111",
"   $$$#  X$$$$=<&$$$$ $$ #      ",
"--------------------------------"
};
