/* XPM */
static char *result[] = {
/* columns rows colors chars-per-pixel */
"32 32 96 2 ",
"   c #735932",
".  c #745A32",
"X  c #775D34",
"o  c #795E35",
"O  c #7D6136",
"+  c #7E6237",
"@  c #806338",
"#  c #816438",
"$  c #826539",
"%  c #836639",
"&  c #81663A",
"*  c #84663A",
"=  c #84673A",
"-  c #8E6F3F",
";  c #8D6F40",
":  c #907241",
">  c #937342",
",  c #967441",
"<  c #997844",
"1  c #9B7C48",
"2  c #9C7E49",
"3  c #9D804A",
"4  c #9F844D",
"5  c #A0854E",
"6  c #A1854E",
"7  c #A1864E",
"8  c #A2864F",
"9  c #A2874F",
"0  c #A3874F",
"q  c #A38650",
"w  c #A38750",
"e  c #A38850",
"r  c #A48850",
"t  c #A58850",
"y  c #A58950",
"u  c #A68951",
"i  c #A68A51",
"p  c #A78A51",
"a  c #A58852",
"s  c #A88B52",
"d  c #A98B52",
"f  c #A98B53",
"g  c #AA8C53",
"h  c #AB8C53",
"j  c #AB8D53",
"k  c #AA8B55",
"l  c #AB8D55",
"z  c #AC8D54",
"x  c #AC8E54",
"c  c #AD8E54",
"v  c #AD8E55",
"b  c #AE8E55",
"n  c #AE8F55",
"m  c #AF8F55",
"M  c #B08F59",
"N  c #B09056",
"B  c #B19057",
"V  c #B19157",
"C  c #B19158",
"Z  c #B29158",
"A  c #B39159",
"S  c #B29259",
"D  c #B39259",
"F  c #B3915B",
"G  c #B3925A",
"H  c #B4925A",
"J  c #B4925B",
"K  c #B5925B",
"L  c #B5935B",
"P  c #B6955B",
"I  c #B5935C",
"U  c #B5925D",
"Y  c #B6935C",
"T  c #B6935D",
"R  c #B7935D",
"E  c #B7935E",
"W  c #B7945D",
"Q  c #B7945E",
"!  c #B8965C",
"~  c #BA975D",
"^  c #B8945E",
"/  c #B8945F",
"(  c #BB975F",
")  c #BB985E",
"_  c #BC995F",
"`  c #BD995F",
"'  c #BE9A5F",
"]  c #BA9660",
"[  c #BB9760",
"{  c #BD9961",
"}  c #BE9961",
"|  c #BE9A60",
" . c #BF9B61",
".. c #BF9A62",
"X. c #C09B62",
"o. c #C29D62",
/* pixels */
"/ / m m ) X. .' ` ~ ~ ' ' ( / / / [ ' ' ' ' ' X.X.X.X.X.X./ 2 4 ",
"/ / Q m m / / m m 4 4 m m m / / / / A Z m m m A / / / / / / < 4 ",
"/ / / T m A / N m f 4 i m m m / / / B m m m m m I / F 5 5 q < 4 ",
"/ / / / A m Q / m m i 4 z m m m K Q m m m m m m m / / / / a < 4 ",
"m / / / / / m T Q m m b 4 r m m m m m m m N A H I T / / / / < 4 ",
"m m W / / / / D D / m m m g 4 g m m m m m m m m m m I / / / < 4 ",
"; = = = = = = = = = = @         = = = O   = o       # =   = : 3 ",
", , , , , , , , , , , , , , , , , , , , , , , , , , , , , , , , ",
"C m P ' ' v 4 4 l ' ' ' ' ' 1 4 ! ' ' ' ' ' m m m m m m m m N V ",
"Q / / Y m m m h 4 4 4 u m m < 4 m m m Z K H H H G A J / / / / Q ",
"m m m Q / V m m m z s y 4 4 < 4 4 5 u m m m N Q / / / K m m m m ",
"u g m m I / J m m m m p 4 4 < 4 9 m m m I / / / / C m m m m m j ",
"4 4 4 m m / / H m m m m m 0 < 4 m Z / / / / / Z m m u 4 4 4 4 4 ",
"4 4 4 i m N / / B m m m m m < 4 / / / / / J m m m m d 4 4 4 4 4 ",
"      % = = = = = = = = = = > 3 &       = = = = = = = = $ . +   ",
", , , , , , , , , , , , , , , , , , , , , , , , , , , , , , , , ",
"} X.X.X.] / N m m m m B _ X.X.X.| ' ' ' ' ' ' ' ' '  .X.X./ 2 4 ",
"/ / / / H m m m Z / / / K N m m m m n c m m m m m m m m m I < 4 ",
"/ / N m N J / / / Q Z B m g 7 4 4 4 4 5 y 7 4 7 v c y 8 7 7 < 4 ",
"m G / / / / R N m m m 9 4 4 4 5 e 7 m m m m m 4 4 4 c m m g < 4 ",
"/ { ../ K m m m m 8 4 4 4 4 s 7 y m m m m m m c x 4 4 0 m T < 4 ",
"o./ H m m m m g 4 4 4 4 4 c 0 w m m m m m m m m 5 4 4 4 M / < 4 ",
"&       o = = = = = = =           = = = = = = = = = =       - 3 ",
", , , , , , , , , , , , , , , , , , , , , , , , , , , , , , , , ",
"' ' 4 m X.X.X. .' ' ' ' ' ' 1 4 S ~ ~ ~ ~ 5 5 E / / / ^ ' ' ' ' ",
"m c 4 m / / / / D m m m m m < 4 4 4 4 4 6 U / / / Q m m m m m m ",
"m m 4 m B / / H m m m g d p < 4 4 4 k / / / / / Q / N m m m m m ",
"m m 4 w m A / / m 4 4 4 4 4 < 4 / / / / / / L m m m m n d s z m ",
"n m u 4 s m N / Q m g 5 4 4 < 4 / / / K N m m m v 6 4 4 4 4 4 4 ",
"4 m m 4 4 t m m H / D m m m < 4 / / / / B m c 5 4 4 4 4 4 4 4 4 ",
"    . = = = $     X = = = = : 3 ; = = = =   * =   $             ",
", , , , , , , , , , , , , , , , , , , , , , , , , , , , , , , , "
};
