/* XPM */
static char *result[] = {
/* columns rows colors chars-per-pixel */
"32 32 75 1 ",
"  c #583F23",
". c #593F23",
"X c #593F24",
"o c #5A4125",
"O c #5B4326",
"+ c #5B4426",
"@ c #5C4426",
"# c #5C4526",
"$ c #5F4527",
"% c #5C4627",
"& c #624A2A",
"* c #62492C",
"= c #624B2C",
"- c #614B2E",
"; c #634C2D",
": c #654D2E",
"> c #694F2E",
", c #6B502E",
"< c #6D512E",
"1 c #70522E",
"2 c #71532F",
"3 c #72532F",
"4 c #725430",
"5 c #735430",
"6 c #735530",
"7 c #735531",
"8 c #745531",
"9 c #755631",
"0 c #765632",
"q c #765732",
"w c #775732",
"e c #775733",
"r c #775832",
"t c #775833",
"y c #785932",
"u c #785833",
"i c #785933",
"p c #795A33",
"a c #785934",
"s c #795934",
"d c #795A34",
"f c #7A5A34",
"g c #7B5B35",
"h c #7D5D35",
"j c #7C5C36",
"k c #7D5C36",
"l c #7D5D36",
"z c #7D5D37",
"x c #7E5D37",
"c c #7E5E37",
"v c #7E5E38",
"b c #7F5E38",
"n c #7F5F38",
"m c #7F5F39",
"M c #805F37",
"N c #815F37",
"B c #805F38",
"V c #805F39",
"C c #826137",
"Z c #806039",
"A c #816039",
"S c #836239",
"D c #81603A",
"F c #81613A",
"G c #82613A",
"H c #846238",
"J c #856338",
"K c #846339",
"L c #856339",
"P c #84623A",
"I c #84633A",
"U c #866439",
"Y c #86643A",
"T c #87643A",
"R c #88653A",
/* pixels */
"GGffSTUJHCCJJSGGGIJJJJJTTTTTTG,1",
"GGAffGGff11fffGGGGzjfffzGGGGGG:1",
"GGGZfzGgfr19fffGGGgfffffmGv225:1",
"GGGGzfDGff91ifffbFfffffffGGGG9:1",
"fGGGGGfADffd18fffffffgzcnZGGGG:1",
"ffAGGGGzzGffft1tffffffffffnGGG:1",
"&%%%%%%%%%%@    %%%O %o   #% %=<",
"--------------------------------",
"jfMJJp11yJJJJJ>1NJJJJJffffffffgj",
"DGGVfffu1119ff:1fffjbcccxzbGGGGF",
"fffFGjfffiq811:1129fffgFGGGnffff",
"9tffmGvffff011:15fffBGGGGjfffffu",
"111ffGGcfffff5:1fkGGGGGjff911111",
"1119fgGGgfffff:1GGGGGcffffq11111",
"   %%%%%%%%%%%;<$   %%%%%%%%#X+ ",
"--------------------------------",
"YTTTPGgffffgKTTTLJJJJJJJJJUTTG,1",
"GGGGcfffkGGGbgfffffsfffffffffV:1",
"GGgfgbGGGFlgfr3111128313ds8433:1",
"fcGGGGAgfff4111273fffff111sfft:1",
"GYTGnffff41111q38ffffffss115fV:1",
"RGcfffft11111s56ffffffff2111jG:1",
"$   o%%%%%%%     %%%%%%%%%%   *<",
"--------------------------------",
"JJ1fTTTYJJJJJJ>1hCCCC22FGGGAJJJJ",
"fs1fGGGGzfffff:111112VGGGDffffff",
"ff1fgGGcffftq9:111aGGGGGFGgfffff",
"ff16fzGGf11111:1GGGGGGnfffffwqif",
"ff91efgGDft211:1GGGbgfffd2111111",
"1ff118ffcGxfff:1GGGGjfs211111111",
"  .%%%%  o%%%%=<&%%%% %% %      ",
"--------------------------------"
};
