/* XPM */
static char *result[] = {
/* columns rows colors chars-per-pixel */
"32 32 97 2 ",
"   c #38050F",
".  c #39050F",
"X  c #3C050F",
"o  c #3F050E",
"O  c #2E0516",
"+  c #2F0516",
"@  c #26051A",
"#  c #27051A",
"$  c #26051B",
"%  c #22051F",
"&  c #25051C",
"*  c #24051D",
"=  c #290519",
"-  c #2B0518",
";  c #2A0519",
":  c #28051A",
">  c #29051A",
",  c #2B051A",
"<  c #2C0518",
"1  c #29051C",
"2  c #28051F",
"3  c #370510",
"4  c #360511",
"5  c #370511",
"6  c #340512",
"7  c #360512",
"8  c #300515",
"9  c #310515",
"0  c #320514",
"q  c #320515",
"w  c #310516",
"e  c #380510",
"r  c #0F052F",
"t  c #1D0523",
"y  c #190527",
"u  c #1A0526",
"i  c #1D0525",
"p  c #1F0524",
"a  c #1F0525",
"s  c #1C0526",
"d  c #14052B",
"f  c #16052A",
"g  c #12052E",
"h  c #14052C",
"j  c #15052C",
"k  c #16052C",
"l  c #190528",
"z  c #180529",
"x  c #0D0530",
"c  c #0D0531",
"v  c #0E0530",
"b  c #0C0532",
"n  c #0D0532",
"m  c #0C0533",
"M  c #0B0534",
"N  c #0A0535",
"B  c #0B0535",
"V  c #090536",
"C  c #090537",
"Z  c #0A0536",
"A  c #0A0537",
"S  c #070539",
"D  c #05053B",
"F  c #06053A",
"G  c #07053A",
"H  c #06053B",
"J  c #080538",
"K  c #090538",
"L  c #080539",
"P  c #200520",
"I  c #200521",
"U  c #210522",
"Y  c #240520",
"T  c #41050D",
"R  c #40050E",
"E  c #41050E",
"W  c #44050D",
"Q  c #46050C",
"!  c #49050B",
"~  c #4C050A",
"^  c #4C050B",
"/  c #4E050A",
"(  c #4F050A",
")  c #5A0506",
"_  c #5F0505",
"`  c #5D0506",
"'  c #500509",
"]  c #510509",
"[  c #520508",
"{  c #530508",
"}  c #520509",
"|  c #560508",
" . c #460510",
".. c #600504",
"X. c #620504",
"o. c #690502",
"O. c #6E0500",
/* pixels */
"G S S S H D D H S S S S F D D n N S S S D D D D D D N S S S D D ",
"C x x x D D D D x x x x J D D C x x x x Z D D D D D x x x C D D ",
"U     8 @ x D D O.O.O.| [ | O.O.O.O.O.`   D I @ @ [ [     @ H B ",
"v x x x x x D D O.[ [ [ [ [ [ [ [ Q     s x     > @ @ @ @ @ S x ",
"@ x x x x x D D O.[ [ [ [ [ [ ] .       x x     4 @ @ @ @ @ S x ",
"@ x m x x x D D O.[ [ [ [ [ T           x s           # @ @ S x ",
"@ x Z x x x S x O.[ [ [ [ [     W [   s x 4             @ @ S x ",
"@ x c H x x G C [ [  .[ [ [   X [ [ a x 1               - @ S x ",
"@ x x F D C D D [ x q o o o     w 2 S S - - - - - - - - : @ D D ",
"x x x x D D D D x x @           @ j D A @ @ @ @ @ @ @ @ @ @ D D ",
"V H D D D D D K N S S S S S D D D F S S S S D H S S H D D D D D ",
"x L D D D D G x x x x x x x D D D D x x x x D J x x m D D D D c ",
"_ O.O.O.) [ o.O.[ [   + @ @ x x D D @ @ @ * x x J D @ @ @ @ Z x ",
"[ [ [ [ [ [ [ [ [ E   @ @ @ b x G x @ x x x x x L D x x t @ S x ",
"[ [ [ [ [ ! Q [ (   3 @ @ @ D x S x @ x x x x x M D x x t @ S x ",
"} R [ ^           e @ @ @ @ D D S x @ x x x x x x D n x t @ S x ",
"  / ' ~ ~ ~     5 @ @ @ & x H D S x @ P P P P P x D K x z @ D H ",
"  [ [ [ [ [   4 @ @ @ @ y x L D S x @ @ @ @ @ @ x C D x x l D D ",
"D D G S S S D D S S S S S S S H D C N S S S S S D D D D D D D D ",
"D D x x x M D c x x x x x x x n D D x x x x x x D D D D D D D D ",
"x x @ @ @ @ @ x D m X.O.O.O.O._ [ [ ..O.  { O.[ [         < @ x ",
"x x @ x x x x x D D [                   x h       9 @ @ @ @ d x ",
"x x @ x x x N D D D [                   i x     6 @ @ @ @ @ d x ",
"D D @ x x J H G D D [                   5 x p   - @ @ @ @ @ d x ",
"D D @ x x x x x D D [               4 - - S S - ; @ @ @ u d r x ",
"D D x x x x x x G x                 0 @ @ D D s @ @ @ @ $ x x x ",
"D D D D D D D S C x N S S S S D S S S S D D D D S S S D G S D D ",
"D D D D D D b x x x x x x x M D C x x x D D D C x x x D C x C D ",
"7   Y x             @ @ x x Z x @ k H x x x x @ C M       O @ @ ",
"3   x f e @ @ @ @ @ @ @ x x S x k H x x x x t @ D D   @ @ @ @ @ ",
"  , x   @ @ @ @ @ @ $ v x x S x D c x x P P * @ D D   @ @ @ @ 6 ",
"  z x   = @ @ @ @ % x x x x S x H x x g @ @ @ @ D D @ @ @ @ 0   "
};
