/* XPM */
static char *result[] = {
/* columns rows colors chars-per-pixel */
"32 32 74 1 ",
"  c #38050F",
". c #39050F",
"X c #3C050F",
"o c #3F050E",
"O c #2E0516",
"+ c #2F0516",
"@ c #26051A",
"# c #27051A",
"$ c #26051B",
"% c #23051E",
"& c #24051D",
"* c #2B0518",
"= c #2A0519",
"- c #28051A",
"; c #29051A",
": c #2C0518",
"> c #370510",
", c #360511",
"< c #340512",
"1 c #360512",
"2 c #310514",
"3 c #300515",
"4 c #310515",
"5 c #320514",
"6 c #300516",
"7 c #310516",
"8 c #0F052F",
"9 c #1D0523",
"0 c #190527",
"q c #1A0526",
"w c #170528",
"e c #14052B",
"r c #12052D",
"t c #10052E",
"y c #190528",
"u c #180529",
"i c #0D0530",
"p c #0D0531",
"a c #0C0532",
"s c #0D0532",
"d c #0C0533",
"f c #0B0534",
"g c #0A0535",
"h c #0B0535",
"j c #090536",
"k c #090537",
"l c #0A0536",
"z c #070539",
"x c #05053B",
"c c #06053A",
"v c #07053A",
"b c #06053B",
"n c #080538",
"m c #090538",
"M c #080539",
"N c #200520",
"B c #41050D",
"V c #41050E",
"C c #44050D",
"Z c #46050C",
"A c #49050B",
"S c #4C050A",
"D c #4C050B",
"F c #4F050A",
"G c #5A0506",
"H c #5F0505",
"J c #510509",
"K c #520508",
"L c #520509",
"P c #560508",
"I c #600504",
"U c #620504",
"Y c #690502",
"T c #6E0500",
/* pixels */
"vzzzbxxbzzzzcxxsgzzzxxxxxxgzzzxx",
"kiiixxxxiiiinxxkiiiilxxxxxiiikxx",
"+  3@ixxTTTPKPTTTTTTTTKV KK  @bh",
"@@@@eixxTKKKKKKKKZ      ;@@@@@zi",
"@@@&iixxTKKKKKKJ.       ,@@@@@zi",
"@@%iiixxTKKKKKB            #@@zi",
"@@0iiiziTKKKKK  CK          @@zi",
"@@riiivkTKKKKK XKKo         *@zi",
"@eiiiixxTKCooo  776*********-@xx",
"iiiiiixxKL      @@@@@@@@@@@@@@xx",
"jbxxxxxmgzzzzzxxxczzzzxbzzbxxxxx",
"iMxxxxviiiiiiixxxxiiiixniidxxxxp",
"HTTTGKYTKKKKKKK xx@@@&iN@@@@@@li",
"KKKKKKKKKV      vi@iiiiiiiii9@zi",
"KKKKKAZKF  >@@-@zi@iiiiiiiii9@zi",
"KKKD       2@@@@zi@iiiiiiiii9@zi",
"KKo SS      @@@@zi@NNNNNiiiiu@xb",
"KK  KK      #@@@zi@@@@@@iiiiiyxx",
"xxvzzzxxzzzzzzzbxkgzzzzzxxxxxxxx",
"xxiiifxpiiiiiiisxxiiiiiixxxxxxxx",
"ii@@@@@ixdUTTTTHKKITTTTKK    :@i",
"ii@iiiiixxK              4@@@@ei",
"ii@iiiiixxK             <@@@@@ei",
"xx@iiiiixxK             *@@@@@ei",
"xx@iiiiixxK       ,*****=@@@qe8i",
"xxiiiiiivi        5@@@@@@@@@$iii",
"xxxxxxxzkigzzzzxzzzzxxxxzzzxvzxx",
"xxxxxxaiiiiiiifxkiiixxxkiiixkikx",
"1            @li@@@@@@@ikf   O@@",
"@@@@@@@@@@@@@@zi@@@@@@wixx @@@@@",
"<<5@@@@@@@@@@@zi@@@@eetixx @@@@<",
"  5@@@@@@@@@@@zi@@@%iiiixx@@@@5 "
};
