/* XPM */
static char *_763fd732e0b47278d7d0e4a4edee9130m0nDz8UQLsH71TJ[] = {
/* columns rows colors chars-per-pixel */
"32 32 39 1 ",
"  c None",
". c #290000",
"X c #380000",
"o c #372A17",
"O c #3B2E1B",
"+ c #3D301D",
"@ c #3F311D",
"# c #3F311E",
"$ c #450000",
"% c #480000",
"& c #490000",
"* c #4A0000",
"= c #4C0000",
"- c #4F0000",
"; c #520000",
": c #560000",
"> c #423522",
", c #483A26",
"< c #53432D",
"1 c #55452E",
"2 c #57472F",
"3 c #5B482C",
"4 c #5D4B31",
"5 c #5E4C32",
"6 c #624E30",
"7 c #6D5736",
"8 c #6E5836",
"9 c #715A39",
"0 c #7D633E",
"q c #83683F",
"w c #8C6E43",
"e c #8D6F43",
"r c #896E44",
"t c #8D7147",
"y c #957546",
"u c #967647",
"i c #9B7B4C",
"p c #9E7E4F",
"a c #9F7F50",
/* pixels */
"                                ",
"                                ",
"                                ",
"                                ",
"                                ",
"                                ",
"                                ",
"                                ",
"                                ",
"                                ",
"                                ",
"                                ",
"              &==&              ",
"              =:;X              ",
"              &=&.              ",
"              &$..              ",
"              aa77              ",
"              yi94              ",
"              yq22              ",
"              yw22              ",
"              aa,>              ",
"              aa>>              ",
"              aa<2              ",
"              pa52              ",
"              yw22              ",
"              yy22              ",
"              77++              ",
"              876+              ",
"              aa+O              ",
"              arOO              ",
"              8t0o              ",
"              73oo              "
};
