/* XPM */
static char *_f6f499c8ff74223c69601c812f8507eQSgXvfT4vRKe9GrM[] = {
/* columns rows colors chars-per-pixel */
"32 32 42 1 ",
"  c None",
". c #372A17",
"X c #3B2E1B",
"o c #3D301D",
"O c #3F311D",
"+ c #3F311E",
"@ c #423522",
"# c #483A26",
"$ c #53432D",
"% c #55452E",
"& c #57472F",
"* c #5B482C",
"= c #5D4B31",
"- c #5E4C32",
"; c #624E30",
": c #6D5736",
"> c #6E5836",
", c #715A39",
"< c #7D633E",
"1 c #83683F",
"2 c #8C6E43",
"3 c #8D6F43",
"4 c #896E44",
"5 c #8D7147",
"6 c #957546",
"7 c #967647",
"8 c #9B7B4C",
"9 c #9E7E4F",
"0 c #9F7F50",
"q c #01A7AC",
"w c #02A8AD",
"e c #09B1B6",
"r c #16C3C8",
"t c #30E5EB",
"y c #32E8EE",
"u c #49EEF3",
"i c #7BFAFE",
"p c #C2FAFC",
"a c #C1FDFF",
"s c #E5FCFD",
"d c #FDFFFF",
"f c white",
/* pixels */
"                                ",
"                                ",
"                                ",
"                                ",
"                                ",
"                                ",
"                                ",
"                                ",
"                                ",
"                                ",
"                                ",
"                                ",
"              etqw              ",
"              uyry              ",
"              iips              ",
"              addd              ",
"              00::              ",
"              68,=              ",
"              61&&              ",
"              62&&              ",
"              00#@              ",
"              00@@              ",
"              00$&              ",
"              90-&              ",
"              62&&              ",
"              66&&              ",
"              ::oo              ",
"              >:;o              ",
"              00oX              ",
"              04XX              ",
"              >5<.              ",
"              :*..              "
};
