/* XPM */
static char *ca47f1bf87e24d6e88baf3d924933ac9MQQb0cGHKFSmWbnx[] = {
/* columns rows colors chars-per-pixel */
"32 32 43 1 ",
"  c None",
". c #372A17",
"X c #3B2E1B",
"o c #3D301D",
"O c #3F311E",
"+ c #3F321E",
"@ c #423522",
"# c #483A26",
"$ c #53432D",
"% c #55452E",
"& c #57472F",
"* c #5B482C",
"= c #5D4C31",
"- c #5E4C32",
"; c #624E30",
": c #6D5736",
"> c #6E5836",
", c #705A39",
"< c #7D633D",
"1 c #FD0000",
"2 c #EE140D",
"3 c #83683F",
"4 c #8C6E43",
"5 c #8D6F43",
"6 c #896D44",
"7 c #8D7147",
"8 c #957546",
"9 c #9B7B4C",
"0 c #9E7E4F",
"q c #9F7F50",
"w c #FF8F00",
"e c #FF9000",
"r c #FF9A00",
"t c #FFAE00",
"y c #FFD500",
"u c #FFD800",
"i c #FFE42F",
"p c #FFFF97",
"a c #FFF8BD",
"s c #FFFFCE",
"d c #FFFADF",
"f c #FFFFFD",
"g c white",
/* pixels */
"                                ",
"                                ",
"                                ",
"                                ",
"                                ",
"                                ",
"                                ",
"                                ",
"                                ",
"                                ",
"              1111              ",
"             111111             ",
"            11rywe11            ",
"            11iutu11            ",
"            11ppad11            ",
"             1sfff1             ",
"             112111             ",
"              89,=              ",
"              83&&              ",
"              84&&              ",
"              qq#@              ",
"              qq@@              ",
"              qq$&              ",
"              0q=&              ",
"              84&&              ",
"              88&&              ",
"              ::oo              ",
"              >:;o              ",
"              qqoX              ",
"              q6XX              ",
"              >7<.              ",
"              :*..              "
};
