/* XPM */
static char *result[] = {
/* columns rows colors chars-per-pixel */
"32 32 129 2 ",
"   c #15403D",
".  c #15413D",
"X  c #17423F",
"o  c #184340",
"O  c #1B4541",
"+  c #1C4642",
"@  c #1D4643",
"#  c #1D4743",
"$  c #1D4744",
"%  c #1D4844",
"&  c #1E4844",
"*  c #1F4845",
"=  c #1C4A44",
"-  c #1F524C",
";  c #1F5752",
":  c #234F4A",
">  c #22534D",
",  c #22554E",
"<  c #235952",
"1  c #275C52",
"2  c #295C52",
"3  c #2B5D52",
"4  c #2E5F51",
"5  c #2E6052",
"6  c #2F6052",
"7  c #2E6153",
"8  c #2F6153",
"9  c #2E6154",
"0  c #2F6154",
"q  c #2E6254",
"w  c #2E6255",
"e  c #2E6355",
"r  c #2D6356",
"t  c #2E6356",
"y  c #2D6457",
"u  c #2D6558",
"i  c #2D6559",
"p  c #2D6659",
"a  c #2C665A",
"s  c #2C665B",
"d  c #2D665B",
"f  c #2C675B",
"g  c #2B685C",
"h  c #2B695E",
"j  c #2B6A5E",
"k  c #2B6A5F",
"l  c #2C685D",
"z  c #2C695E",
"x  c #2C695F",
"c  c #306458",
"v  c #31675C",
"b  c #2B6B60",
"n  c #2A6B61",
"m  c #2A6C61",
"M  c #2A6D63",
"N  c #296E65",
"B  c #296F65",
"V  c #2A6E64",
"C  c #2A6E65",
"Z  c #296F66",
"A  c #336F65",
"S  c #336F67",
"D  c #297066",
"F  c #287067",
"G  c #297067",
"H  c #297168",
"J  c #297169",
"K  c #2A7269",
"L  c #2B736A",
"P  c #2B736B",
"I  c #2B746C",
"U  c #2C746C",
"Y  c #2C746D",
"T  c #2C756D",
"R  c #2C756E",
"E  c #2D756E",
"W  c #2D766E",
"Q  c #2D766F",
"!  c #307066",
"~  c #2E7670",
"^  c #2E7770",
"/  c #2E7771",
"(  c #2F7771",
")  c #2F7872",
"_  c #2F7C75",
"`  c #367771",
"'  c #307973",
"]  c #357870",
"[  c #307974",
"{  c #317A74",
"}  c #317A75",
"|  c #317A76",
" . c #327B77",
".. c #377B77",
"X. c #307D77",
"o. c #327C77",
"O. c #337C78",
"+. c #337D78",
"@. c #347D79",
"#. c #347E7A",
"$. c #357F7C",
"%. c #367F7D",
"&. c #387E7B",
"*. c #36807D",
"=. c #36807E",
"-. c #37807E",
";. c #37817E",
":. c #37817F",
">. c #35837F",
",. c #37837E",
"<. c #39817F",
"1. c #378482",
"2. c #368682",
"3. c #378683",
"4. c #368783",
"5. c #388180",
"6. c #388280",
"7. c #388281",
"8. c #398381",
"9. c #398382",
"0. c #3A8684",
"q. c #378884",
"w. c #3A8987",
"e. c #398A87",
"r. c #398B88",
"t. c #3A8A88",
"y. c #3A8B89",
"u. c #3A8C8A",
"i. c #3A8E8C",
/* pixels */
"9.9.F F >.u.e.4.2.,.,.4.4.1.9.9.9.0.4.4.4.4.4.u.u.u.u.u.u.9.2 4 ",
"9.9.=.F F 9.9.F F 4 4 F F F 9.9.9.9./ R F F F / 9.9.9.9.9.9.< 4 ",
"9.9.9.#.F ^ 9.H F k 4 f F F F 9.9.9.L F F F F F O.9...6 8 c < 4 ",
"9.9.9.9.( F ;.9.F F d 4 M F F F  .:.F F F F F F F 9.9.9.9.v < 4 ",
"F 9.9.9.9.8.F $.;.F F B 4 u F F F F F F F K / } O.$.9.9.9.9.< 4 ",
"F F %.9.9.9.9.~ ~ 6.F F F b 4 b F F F F F F F F F F  .9.9.9.< 4 ",
": * * * * * * * * * * @         * * * O   * o       # *   * > 3 ",
"; ; ; ; ; ; ; ; ; ; ; ; ; ; ; ; ; ; ; ; ; ; ; ; ; ; ; ; ; ; ; ; ",
"T F _ 4.4.! 4 4 A 4.4.4.4.4.1 4 X.4.4.4.4.4.F F F F F F F F H U ",
"-.9.9.@.F F F m 4 4 4 f D F < 4 F F F E  .} } } ) ) { 7.9.9.9.;.",
"F F F :.9.Y F F F M h a 4 4 < 4 4 5 f F F F J :.9.9.9.O.F F F F ",
"s b F F o.9.[ F F F F l 4 4 < 4 t D F F +.9.9.9.9.Y F F F F F m ",
"4 4 4 F F 6.9.' F F F F F r < 4 F W 9.9.9.9.9.T F D f 4 4 4 4 4 ",
"4 4 4 f F H 9.9.P F F F F F < 4 9.9.9.9.9.{ F F F F k 4 4 4 4 4 ",
"      & * * * * * * * * * * , 3 =       * * * * * * * * $ . +   ",
"; ; ; ; ; ; ; ; ; ; ; ; ; ; ; ; ; ; ; ; ; ; ; ; ; ; ; ; ; ; ; ; ",
"t.u.u.u.0.9.H F F F F P 3.u.u.u.q.4.4.4.4.4.4.4.4.4.e.u.u.9.2 4 ",
"9.9.9.9.[ F F F Q 5.9.9. .K F F F F Z N F F F F F F F F F @.< 4 ",
"9.9.K F H | 9.9.9.-.Q P F b q 4 4 4 4 7 a 9 4 q N V a w q q < 4 ",
"F ' 8.9.9.9.*.H F F G e 4 4 4 5 y 9 F F F F D 4 4 4 V F F b < 4 ",
"9.w.y.9. .F F F F w 4 4 4 4 z 9 i F F F F F F N M 4 4 r F #.< 4 ",
"i.9.' F F F F b 4 4 4 4 4 V r y F F F F F F F F 5 4 4 4 ` 9.< 4 ",
"=       o * * * * * * *           * * * * * * * * * *       - 3 ",
"; ; ; ; ; ; ; ; ; ; ; ; ; ; ; ; ; ; ; ; ; ; ; ; ; ; ; ; ; ; ; ; ",
"4.4.4 F u.u.u.r.4.4.4.4.4.4.1 4 ] ,.,.,.,.6 8 <.9.9.9.=.4.4.4.4.",
"F N 4 F 9.9.9.9.~ F F F F F < 4 4 4 4 4 0 &.9.9.9.=.F F F F F F ",
"F F 4 F P 9.9.[ F F G b j g < 4 4 4 S 9.9.9.9.9.;.9.J F F F F F ",
"F F 4 y F ^ 9.6.F 4 4 4 4 4 < 4 9.9.9.9.9.9. .F F F F Z k h M F ",
"Z F f 4 x F J 9.;.F n 5 4 4 < 4 9.9.9. .K F F F N 7 4 4 4 4 4 4 ",
"4 F F 4 4 p F F ' 9.( F F D < 4 9.9.9.9.I F C 5 4 4 4 4 4 4 4 4 ",
"    . * * * &     X * * * * > 3 : * * * *   * *   %             ",
"; ; ; ; ; ; ; ; ; ; ; ; ; ; ; ; ; ; ; ; ; ; ; ; ; ; ; ; ; ; ; ; "
};
